<svg width="60" height="60" viewBox="0 0 60 60" fill="none" xmlns="http://www.w3.org/2000/svg">
<circle cx="30" cy="30" r="30" fill="#77CE90"/>
<path d="M44.0592 23.3529L26.9592 40.4529C26.8103 40.6024 26.6333 40.721 26.4384 40.8019C26.2436 40.8828 26.0347 40.9244 25.8237 40.9244C25.6127 40.9244 25.4038 40.8828 25.2089 40.8019C25.014 40.721 24.8371 40.6024 24.6881 40.4529L17.2069 32.9717C17.0577 32.8225 16.9395 32.6455 16.8588 32.4507C16.778 32.2558 16.7365 32.047 16.7365 31.8361C16.7365 31.6252 16.778 31.4164 16.8588 31.2216C16.9395 31.0267 17.0577 30.8497 17.2069 30.7006C17.356 30.5515 17.533 30.4332 17.7279 30.3525C17.9227 30.2718 18.1315 30.2302 18.3424 30.2302C18.5533 30.2302 18.7621 30.2718 18.957 30.3525C19.1518 30.4332 19.3288 30.5515 19.478 30.7006L25.825 37.0476L41.7908 21.0845C42.092 20.7833 42.5004 20.6141 42.9263 20.6141C43.3523 20.6141 43.7607 20.7833 44.0619 21.0845C44.3631 21.3857 44.5322 21.7941 44.5322 22.22C44.5322 22.646 44.3631 23.0544 44.0619 23.3556L44.0592 23.3529Z" fill="white"/>
</svg>
