<svg width="67" height="67" viewBox="0 0 67 67" fill="none" xmlns="http://www.w3.org/2000/svg">
<path fill-rule="evenodd" clip-rule="evenodd" d="M34.2175 31.9227L29.9853 23.905L25.7503 31.9227C25.4507 32.509 25.0175 33.0168 24.4857 33.4051C23.9507 33.7954 23.3324 34.0562 22.6795 34.1672L13.9583 35.8701L20.047 43.1284C20.4577 43.5766 20.7671 44.1078 20.9542 44.6862C21.1399 45.2633 21.198 45.8739 21.1245 46.4757L19.966 55.8333L27.9976 51.9641C28.6183 51.6676 29.2975 51.5141 29.9853 51.5146C30.6311 51.5141 31.2677 51.6682 31.8417 51.9641L40.0548 55.5932L38.8935 46.3417C38.8201 45.7399 38.8782 45.1293 39.0638 44.5522C39.2509 43.9739 39.5604 43.4426 39.9711 42.9944L46.0095 35.8589L37.2883 34.156C36.6354 34.0451 36.0171 33.7842 35.4821 33.3939C34.9516 33.0088 34.5185 32.505 34.2175 31.9227Z" stroke="white" stroke-width="1.5" stroke-linecap="round" stroke-linejoin="round"/>
<path d="M51.9519 13.3117C52.2453 13.0193 52.2462 12.5444 51.9539 12.251C51.6615 11.9576 51.1866 11.9567 50.8932 12.249L51.9519 13.3117ZM41.181 21.9249C40.8876 22.2173 40.8867 22.6921 41.179 22.9856C41.4714 23.279 41.9462 23.2799 42.2397 22.9876L41.181 21.9249ZM53.5709 21.3741C53.8644 21.0819 53.8654 20.607 53.5732 20.3135C53.2809 20.02 52.806 20.0189 52.5125 20.3112L53.5709 21.3741ZM46.0359 26.7599C45.7423 27.0522 45.7413 27.5271 46.0336 27.8206C46.3258 28.1141 46.8007 28.1151 47.0942 27.8229L46.0359 26.7599ZM43.8587 11.6982C44.1522 11.406 44.1532 10.9311 43.861 10.6376C43.5687 10.344 43.0938 10.343 42.8003 10.6353L43.8587 11.6982ZM36.3209 17.0868C36.0273 17.3791 36.0263 17.8539 36.3186 18.1475C36.6108 18.441 37.0857 18.442 37.3792 18.1498L36.3209 17.0868ZM50.8932 12.249L41.181 21.9249L42.2397 22.9876L51.9519 13.3117L50.8932 12.249ZM52.5125 20.3112L46.0359 26.7599L47.0942 27.8229L53.5709 21.3741L52.5125 20.3112ZM42.8003 10.6353L36.3209 17.0868L37.3792 18.1498L43.8587 11.6982L42.8003 10.6353Z" fill="white"/>
</svg>
