<svg width="69" height="67" viewBox="0 0 69 67" fill="none" xmlns="http://www.w3.org/2000/svg">
<path fill-rule="evenodd" clip-rule="evenodd" d="M33.3834 46.9724C33.3159 50.2396 30.6245 52.84 27.3569 52.7953C24.0893 52.7505 21.4702 50.0773 21.4923 46.8095C21.5143 43.5417 24.1692 40.904 27.4371 40.9033C29.0305 40.9195 30.5521 41.5681 31.6673 42.7063C32.7824 43.8445 33.3997 45.379 33.3834 46.9724V46.9724Z" stroke="white" stroke-width="1.5" stroke-linecap="round" stroke-linejoin="round"/>
<path fill-rule="evenodd" clip-rule="evenodd" d="M61.7048 46.9724C61.6373 50.2396 58.946 52.84 55.6784 52.7953C52.4108 52.7505 49.7917 50.0773 49.8137 46.8095C49.8358 43.5417 52.4907 40.904 55.7586 40.9033C57.3519 40.9195 58.8736 41.5681 59.9887 42.7063C61.1039 43.8445 61.7212 45.379 61.7048 46.9724V46.9724Z" stroke="white" stroke-width="1.5" stroke-linecap="round" stroke-linejoin="round"/>
<path d="M49.1116 47.7225C49.5258 47.7225 49.8616 47.3867 49.8616 46.9725C49.8616 46.5583 49.5258 46.2225 49.1116 46.2225V47.7225ZM33.3833 46.2225C32.9691 46.2225 32.6333 46.5583 32.6333 46.9725C32.6333 47.3867 32.9691 47.7225 33.3833 47.7225V46.2225ZM48.3727 46.9725C48.3727 47.3867 48.7085 47.7225 49.1227 47.7225C49.537 47.7225 49.8727 47.3867 49.8727 46.9725H48.3727ZM49.8727 32.2688C49.8727 31.8546 49.537 31.5188 49.1227 31.5188C48.7085 31.5188 48.3727 31.8546 48.3727 32.2688H49.8727ZM49.1228 46.2225C48.7085 46.2225 48.3728 46.5583 48.3728 46.9725C48.3728 47.3867 48.7085 47.7225 49.1228 47.7225V46.2225ZM49.8235 47.7225C50.2377 47.7225 50.5735 47.3867 50.5735 46.9725C50.5735 46.5583 50.2377 46.2225 49.8235 46.2225V47.7225ZM61.7001 46.2227C61.286 46.2314 60.9574 46.5742 60.9661 46.9884C60.9749 47.4025 61.3177 47.7311 61.7318 47.7223L61.7001 46.2227ZM68 40.4372L68.7499 40.4237C68.7492 40.384 68.7453 40.3445 68.7383 40.3055L68 40.4372ZM67.2811 32.1371C67.2084 31.7293 66.8188 31.4577 66.411 31.5304C66.0033 31.6032 65.7317 31.9927 65.8044 32.4005L67.2811 32.1371ZM49.1116 18.4482C48.6974 18.4482 48.3616 18.784 48.3616 19.1982C48.3616 19.6124 48.6974 19.9482 49.1116 19.9482V18.4482ZM59.0806 19.1982V19.9482L59.0854 19.9482L59.0806 19.1982ZM63.6299 21.1157L63.0897 21.636L63.6299 21.1157ZM65.3758 25.7335L64.6265 25.7007C64.6241 25.7558 64.6278 25.811 64.6375 25.8653L65.3758 25.7335ZM65.8044 32.4006C65.8772 32.8084 66.2668 33.0799 66.6746 33.0071C67.0823 32.9343 67.3539 32.5447 67.2811 32.137L65.8044 32.4006ZM49.8616 19.1982C49.8616 18.784 49.5258 18.4482 49.1116 18.4482C48.6974 18.4482 48.3616 18.784 48.3616 19.1982H49.8616ZM48.3616 32.2688C48.3616 32.683 48.6974 33.0188 49.1116 33.0188C49.5258 33.0188 49.8616 32.683 49.8616 32.2688H48.3616ZM48.3616 19.1982C48.3616 19.6124 48.6974 19.9482 49.1116 19.9482C49.5258 19.9482 49.8616 19.6124 49.8616 19.1982H48.3616ZM49.1116 16.9649L48.3616 16.96V16.9649H49.1116ZM46.1412 13.9583L46.1454 13.2083H46.1412V13.9583ZM19.3831 13.9583V13.2082L19.3796 13.2083L19.3831 13.9583ZM17.275 14.843L16.7422 14.3152V14.3152L17.275 14.843ZM16.41 16.9593H17.16L17.16 16.9558L16.41 16.9593ZM16.41 43.9687L17.16 43.9722V43.9687H16.41ZM17.275 46.0849L16.7422 46.6128L17.275 46.0849ZM19.3831 46.9697L19.3796 47.7197H19.3831V46.9697ZM21.4797 47.7197C21.8939 47.7197 22.2297 47.3839 22.2297 46.9697C22.2297 46.5555 21.8939 46.2197 21.4797 46.2197V47.7197ZM49.1172 31.516C48.703 31.516 48.3672 31.8518 48.3672 32.266C48.3672 32.6802 48.703 33.016 49.1172 33.016V31.516ZM66.5483 33.016C66.9625 33.016 67.2983 32.6802 67.2983 32.266C67.2983 31.8518 66.9625 31.516 66.5483 31.516V33.016ZM1 18.7916C0.585786 18.7916 0.25 19.1274 0.25 19.5416C0.25 19.9558 0.585786 20.2916 1 20.2916V18.7916ZM9.73792 20.2916C10.1521 20.2916 10.4879 19.9558 10.4879 19.5416C10.4879 19.1274 10.1521 18.7916 9.73792 18.7916V20.2916ZM3.79167 27.1666C3.37745 27.1666 3.04167 27.5024 3.04167 27.9166C3.04167 28.3308 3.37745 28.6666 3.79167 28.6666V27.1666ZM9.375 28.6666C9.78921 28.6666 10.125 28.3308 10.125 27.9166C10.125 27.5024 9.78921 27.1666 9.375 27.1666V28.6666ZM5.49458 35.5416C5.08037 35.5416 4.74458 35.8774 4.74458 36.2916C4.74458 36.7058 5.08037 37.0416 5.49458 37.0416V35.5416ZM9.375 37.0416C9.78921 37.0416 10.125 36.7058 10.125 36.2916C10.125 35.8774 9.78921 35.5416 9.375 35.5416V37.0416ZM49.1116 46.2225H33.3833V47.7225H49.1116V46.2225ZM49.8727 46.9725V32.2688H48.3727V46.9725H49.8727ZM49.1228 47.7225H49.8235V46.2225H49.1228V47.7225ZM61.7318 47.7223C65.6826 47.6388 68.8212 44.3747 68.7499 40.4237L67.2501 40.4507C67.3065 43.5753 64.8245 46.1566 61.7001 46.2227L61.7318 47.7223ZM68.7383 40.3055L67.2811 32.1371L65.8044 32.4005L67.2617 40.5689L68.7383 40.3055ZM49.1116 19.9482H59.0806V18.4482H49.1116V19.9482ZM59.0854 19.9482C60.595 19.9387 62.0424 20.5488 63.0897 21.636L64.17 20.5954C62.8377 19.2122 60.9963 18.4361 59.0759 18.4482L59.0854 19.9482ZM63.0897 21.636C64.137 22.7233 64.6925 24.1925 64.6265 25.7007L66.1251 25.7663C66.2091 23.8476 65.5024 21.9785 64.17 20.5954L63.0897 21.636ZM64.6375 25.8653L65.8044 32.4006L67.2811 32.137L66.1142 25.6017L64.6375 25.8653ZM48.3616 19.1982V32.2688H49.8616V19.1982H48.3616ZM49.8616 19.1982V16.9649H48.3616V19.1982H49.8616ZM49.8616 16.9698C49.8681 15.9781 49.4801 15.0244 48.7831 14.3189L47.716 15.3731C48.1332 15.7954 48.3655 16.3663 48.3616 16.96L49.8616 16.9698ZM48.7831 14.3189C48.0861 13.6133 47.1372 13.2138 46.1454 13.2083L46.1371 14.7082C46.7307 14.7116 47.2987 14.9507 47.716 15.3731L48.7831 14.3189ZM46.1412 13.2083H19.3831V14.7083H46.1412V13.2083ZM19.3796 13.2083C18.3885 13.2129 17.4398 13.611 16.7422 14.3152L17.8078 15.3709C18.2254 14.9494 18.7933 14.711 19.3866 14.7082L19.3796 13.2083ZM16.7422 14.3152C16.0446 15.0193 15.6554 15.9717 15.66 16.9628L17.16 16.9558C17.1572 16.3625 17.3902 15.7924 17.8078 15.3709L16.7422 14.3152ZM15.66 16.9593V43.9687H17.16V16.9593H15.66ZM15.66 43.9652C15.6554 44.9563 16.0446 45.9087 16.7422 46.6128L17.8078 45.5571C17.3902 45.1356 17.1572 44.5655 17.16 43.9722L15.66 43.9652ZM16.7422 46.6128C17.4398 47.3169 18.3885 47.7151 19.3796 47.7197L19.3866 46.2197C18.7933 46.2169 18.2254 45.9786 17.8078 45.5571L16.7422 46.6128ZM19.3831 47.7197H21.4797V46.2197H19.3831V47.7197ZM49.1172 33.016H66.5483V31.516H49.1172V33.016ZM1 20.2916H9.73792V18.7916H1V20.2916ZM3.79167 28.6666H9.375V27.1666H3.79167V28.6666ZM5.49458 37.0416H9.375V35.5416H5.49458V37.0416Z" fill="white"/>
</svg>
