<svg width="67" height="67" viewBox="0 0 67 67" fill="none" xmlns="http://www.w3.org/2000/svg">
<path fill-rule="evenodd" clip-rule="evenodd" d="M51.2745 44.1978L51.2913 28.0257L39.7812 16.5519C36.3077 13.0937 30.6922 13.0937 27.2187 16.5519L15.7338 27.9978V44.1894C15.7431 49.0866 19.7197 53.0495 24.6169 53.0418H42.3915C47.2854 53.0495 51.2607 49.0917 51.2745 44.1978Z" stroke="white" stroke-width="1.5" stroke-linecap="round" stroke-linejoin="round"/>
<path d="M52.0441 16.8003C52.0441 16.3861 51.7083 16.0503 51.2941 16.0503C50.8799 16.0503 50.5441 16.3861 50.5441 16.8003H52.0441ZM51.2941 28.0256H50.5441C50.5441 28.2249 50.6234 28.416 50.7646 28.5567L51.2941 28.0256ZM55.3038 33.082C55.5972 33.3745 56.072 33.3737 56.3645 33.0804C56.6569 32.787 56.6562 32.3122 56.3628 32.0197L55.3038 33.082ZM16.2633 28.5288C16.5567 28.2364 16.5574 27.7615 16.265 27.4682C15.9725 27.1748 15.4976 27.1741 15.2043 27.4665L16.2633 28.5288ZM10.6371 32.0197C10.3438 32.3122 10.3431 32.7871 10.6355 33.0804C10.928 33.3737 11.4028 33.3745 11.6962 33.082L10.6371 32.0197ZM38.3333 53.0417C38.3333 53.4559 38.6691 53.7917 39.0833 53.7917C39.4975 53.7917 39.8333 53.4559 39.8333 53.0417H38.3333ZM27.1667 53.0417C27.1667 53.4559 27.5024 53.7917 27.9167 53.7917C28.3309 53.7917 28.6667 53.4559 28.6667 53.0417H27.1667ZM50.5441 16.8003V28.0256H52.0441V16.8003H50.5441ZM50.7646 28.5567L55.3038 33.082L56.3628 32.0197L51.8236 27.4944L50.7646 28.5567ZM15.2043 27.4665L10.6371 32.0197L11.6962 33.082L16.2633 28.5288L15.2043 27.4665ZM39.8333 53.0417V48.0725H38.3333V53.0417H39.8333ZM39.8333 48.0725C39.8333 44.5747 36.9978 41.7392 33.5 41.7392V43.2392C36.1694 43.2392 38.3333 45.4032 38.3333 48.0725H39.8333ZM33.5 41.7392C30.0022 41.7392 27.1667 44.5747 27.1667 48.0725H28.6667C28.6667 45.4032 30.8306 43.2392 33.5 43.2392V41.7392ZM27.1667 48.0725V53.0417H28.6667V48.0725H27.1667Z" fill="white"/>
</svg>
