<svg width="30" height="30" viewBox="0 0 30 30" fill="none" xmlns="http://www.w3.org/2000/svg">
<circle cx="15" cy="15" r="15" fill="#FF2E63"/>
<path d="M14.25 22C14.25 22.4142 14.5858 22.75 15 22.75C15.4142 22.75 15.75 22.4142 15.75 22H14.25ZM15.75 14C15.75 13.5858 15.4142 13.25 15 13.25C14.5858 13.25 14.25 13.5858 14.25 14H15.75ZM18 8.75C18.4142 8.75 18.75 8.41421 18.75 8C18.75 7.58579 18.4142 7.25 18 7.25V8.75ZM15 11H14.25H15ZM14.25 14C14.25 14.4142 14.5858 14.75 15 14.75C15.4142 14.75 15.75 14.4142 15.75 14H14.25ZM15 13.25C14.5858 13.25 14.25 13.5858 14.25 14C14.25 14.4142 14.5858 14.75 15 14.75V13.25ZM17 14.75C17.4142 14.75 17.75 14.4142 17.75 14C17.75 13.5858 17.4142 13.25 17 13.25V14.75ZM15 14.75C15.4142 14.75 15.75 14.4142 15.75 14C15.75 13.5858 15.4142 13.25 15 13.25V14.75ZM13 13.25C12.5858 13.25 12.25 13.5858 12.25 14C12.25 14.4142 12.5858 14.75 13 14.75V13.25ZM15.75 22V14H14.25V22H15.75ZM18 7.25C15.9289 7.25 14.25 8.92893 14.25 11H15.75C15.75 9.75736 16.7574 8.75 18 8.75V7.25ZM14.25 11V14H15.75V11H14.25ZM15 14.75H17V13.25H15V14.75ZM15 13.25H13V14.75H15V13.25Z" fill="white"/>
</svg>
