<svg width="30" height="30" viewBox="0 0 30 30" fill="none" xmlns="http://www.w3.org/2000/svg">
<circle cx="15" cy="15" r="15" fill="#FF2E63"/>
<path fill-rule="evenodd" clip-rule="evenodd" d="M18 8H12C9.79086 8 8 9.79086 8 12V18C8 20.2091 9.79086 22 12 22H18C20.2091 22 22 20.2091 22 18V12C22 9.79086 20.2091 8 18 8Z" stroke="white" stroke-width="1.5" stroke-linecap="round" stroke-linejoin="round"/>
<path fill-rule="evenodd" clip-rule="evenodd" d="M15 18C13.3431 18 12 16.6569 12 15C12 13.3431 13.3431 12 15 12C16.6569 12 18 13.3431 18 15C18 15.7956 17.6839 16.5587 17.1213 17.1213C16.5587 17.6839 15.7956 18 15 18Z" stroke="white" stroke-width="1.5" stroke-linecap="round" stroke-linejoin="round"/>
<rect x="18" y="12" width="2" height="2" rx="1" transform="rotate(-90 18 12)" fill="white"/>
<rect x="18.5" y="11.5" width="1" height="1" rx="0.5" transform="rotate(-90 18.5 11.5)" stroke="white" stroke-linecap="round"/>
</svg>
