<svg width="2000" height="1679" viewBox="0 0 2000 1679" fill="none" xmlns="http://www.w3.org/2000/svg">
<path d="M412.3 393.513V1229.82H641.462V912.095H919.925L895.275 734.06H641.462V567.895H980.183L952.793 393.513H412.3Z" fill="white"/>
<path d="M1736.14 393.513H1016.7V569.721H1263.21V1228.9H1487.81V569.721H1755.32L1736.14 393.513Z" fill="white"/>
<path d="M474.384 234.652C20.8081 569.904 -25.0243 1044.48 8.75654 1239.86C47.4677 855.672 253.135 581.895 351.13 493.03C444.255 383.774 738.423 162.708 1170.09 152.482C1601.75 142.257 1903.22 375.253 2000 493.03L1989.04 326.864C1749.47 66.1128 1343.25 0.924927 1170.09 0.924927C791.742 19.9152 548.641 164.655 474.384 234.652Z" fill="url(#paint0_linear_87_182)"/>
<path d="M179.81 1460.46L184.017 1488.98H130.493V1552.55H94.0318V1393.85H190.795L195.002 1422.37H130.493V1460.46H179.81ZM300.221 1489.21L281.523 1439.9L263.76 1489.21H300.221ZM265.162 1393.62H299.286L359.821 1550.68L323.827 1554.89L310.972 1518.19H253.242L240.854 1552.55H204.393L265.162 1393.62ZM420.022 1552.55H383.561V1393.62H418.62L475.182 1474.25L486.167 1489.68L485.933 1393.62H522.395V1552.55H487.336L429.138 1470.51L420.022 1457.89V1552.55ZM732.859 1393.62L737.299 1422.37H684.711V1552.55H648.249V1422.37H600.569V1393.62H732.859ZM818.512 1423.07H797.71V1468.18H819.213C824.355 1468.18 828.874 1467.32 832.77 1465.61C836.821 1463.89 840.015 1461.4 842.352 1458.13C844.69 1454.85 845.858 1450.8 845.858 1445.97C845.858 1440.68 844.768 1436.31 842.586 1432.88C840.405 1429.46 837.288 1426.96 833.237 1425.41C829.342 1423.85 824.433 1423.07 818.512 1423.07ZM761.249 1393.62H819.681C831.523 1393.62 842.274 1395.49 851.935 1399.23C861.596 1402.81 869.309 1408.42 875.074 1416.06C880.995 1423.54 883.956 1433.27 883.956 1445.27C883.956 1454.93 881.696 1463.35 877.178 1470.51C872.659 1477.53 866.894 1483.06 859.882 1487.11L896.811 1552.55H855.675L826.225 1497.39C823.732 1497.55 821.317 1497.63 818.98 1497.63C816.642 1497.47 814.305 1497.39 811.968 1497.39H797.71V1552.55H761.249V1393.62ZM999.621 1489.21L980.923 1439.9L963.16 1489.21H999.621ZM964.562 1393.62H998.686L1059.22 1550.68L1023.23 1554.89L1010.37 1518.19H952.642L940.255 1552.55H903.793L964.562 1393.62ZM1119.42 1552.55H1082.96V1393.62H1118.02L1174.58 1474.25L1185.57 1489.68L1185.33 1393.62H1221.8V1552.55H1186.74L1128.54 1470.51L1119.42 1457.89V1552.55ZM1252.83 1542.5L1263.35 1513.99C1266.31 1515.55 1269.97 1517.18 1274.33 1518.9C1278.7 1520.45 1283.29 1521.78 1288.12 1522.87C1292.95 1523.96 1297.4 1524.51 1301.45 1524.51C1306.9 1524.51 1311.42 1523.88 1315 1522.64C1318.74 1521.39 1321.47 1519.68 1323.18 1517.49C1325.05 1515.16 1325.99 1512.59 1325.99 1509.78C1325.99 1507.13 1324.59 1504.64 1321.78 1502.3C1319.13 1499.96 1315.7 1497.63 1311.5 1495.29C1307.29 1492.8 1303 1490.23 1298.64 1487.58C1293.34 1484.3 1287.89 1480.95 1282.28 1477.53C1276.67 1473.94 1271.45 1470.05 1266.62 1465.84C1261.95 1461.63 1258.13 1456.96 1255.17 1451.82C1252.36 1446.52 1250.96 1440.68 1250.96 1434.29C1251.12 1425.87 1253.45 1418.39 1257.97 1411.85C1262.49 1405.15 1269.04 1399.93 1277.61 1396.19C1286.18 1392.29 1296.3 1390.35 1307.99 1390.35C1315.94 1390.35 1324.04 1391.51 1332.3 1393.85C1340.56 1396.19 1347.72 1399.15 1353.8 1402.73L1342.35 1429.38C1337.99 1427.51 1334.01 1426.03 1330.43 1424.94C1326.85 1423.69 1323.26 1422.76 1319.68 1422.13C1316.25 1421.35 1312.51 1420.96 1308.46 1420.96C1302.69 1420.96 1297.94 1422.21 1294.2 1424.7C1290.62 1427.04 1288.83 1430.31 1288.83 1434.52C1288.83 1437.64 1290.07 1440.36 1292.57 1442.7C1295.06 1445.04 1298.41 1447.3 1302.62 1449.48C1306.82 1451.66 1311.19 1454.23 1315.7 1457.19C1321.31 1460.46 1326.92 1463.81 1332.53 1467.24C1338.3 1470.67 1343.52 1474.49 1348.19 1478.7C1352.87 1482.9 1356.61 1487.58 1359.41 1492.72C1362.37 1497.7 1363.85 1503.55 1363.85 1510.25C1363.85 1518.97 1361.36 1526.76 1356.37 1533.62C1351.54 1540.32 1344.53 1545.7 1335.34 1549.75C1326.3 1553.64 1315.31 1555.59 1302.38 1555.59C1298.64 1555.59 1294.51 1555.2 1289.99 1554.42C1285.48 1553.8 1280.88 1552.86 1276.2 1551.62C1271.69 1550.37 1267.32 1548.97 1263.12 1547.41C1259.06 1545.85 1255.64 1544.22 1252.83 1542.5ZM1426.98 1552.55H1390.52V1393.62H1448.95C1460.8 1393.62 1471.55 1395.57 1481.21 1399.46C1490.87 1403.2 1498.58 1409.12 1504.35 1417.22C1510.27 1425.17 1513.23 1435.38 1513.23 1447.84C1513.23 1457.04 1511.36 1465.06 1507.62 1471.92C1504.04 1478.77 1499.13 1484.38 1492.89 1488.75C1486.66 1493.11 1479.57 1496.38 1471.63 1498.56C1463.68 1500.74 1455.5 1501.83 1447.08 1501.83H1426.98V1552.55ZM1447.79 1423.07H1426.98V1472.62H1448.49C1453.63 1472.62 1458.15 1471.68 1462.04 1469.81C1466.09 1467.94 1469.21 1465.22 1471.39 1461.63C1473.73 1457.89 1474.98 1453.61 1475.13 1448.78C1475.13 1443.01 1474.04 1438.26 1471.86 1434.52C1469.68 1430.63 1466.56 1427.74 1462.51 1425.87C1458.46 1424 1453.55 1423.07 1447.79 1423.07ZM1608.56 1555.82C1591.89 1555.82 1577.55 1552.16 1565.56 1544.84C1553.56 1537.52 1544.37 1527.62 1537.98 1515.16C1531.59 1502.69 1528.39 1488.9 1528.39 1473.79C1528.39 1457.43 1531.82 1443.01 1538.68 1430.55C1545.53 1417.93 1554.96 1408.11 1566.96 1401.1C1578.96 1393.93 1592.82 1390.27 1608.56 1390.11C1625.55 1390.11 1639.96 1393.77 1651.8 1401.1C1663.8 1408.42 1672.91 1418.32 1679.15 1430.78C1685.54 1443.09 1688.73 1456.88 1688.73 1472.15C1688.73 1488.51 1685.3 1503 1678.45 1515.62C1671.75 1528.09 1662.4 1537.91 1650.4 1545.07C1638.4 1552.09 1624.46 1555.67 1608.56 1555.82ZM1608.33 1525.21C1616.28 1525.21 1623.44 1523.26 1629.83 1519.36C1636.22 1515.47 1641.28 1509.62 1645.02 1501.83C1648.92 1493.89 1650.87 1483.99 1650.87 1472.15C1650.87 1462.18 1649.15 1453.37 1645.72 1445.74C1642.45 1438.1 1637.7 1432.11 1631.47 1427.74C1625.23 1423.22 1617.68 1420.96 1608.8 1420.96C1601.32 1420.96 1594.3 1423.15 1587.76 1427.51C1581.22 1431.87 1576 1437.95 1572.1 1445.74C1568.21 1453.53 1566.26 1462.8 1566.26 1473.55C1566.26 1483.53 1567.89 1492.41 1571.17 1500.2C1574.59 1507.99 1579.42 1514.14 1585.66 1518.66C1592.05 1523.03 1599.6 1525.21 1608.33 1525.21ZM1774.98 1423.07H1754.17V1468.18H1775.68C1780.82 1468.18 1785.34 1467.32 1789.23 1465.61C1793.28 1463.89 1796.48 1461.4 1798.82 1458.13C1801.15 1454.85 1802.32 1450.8 1802.32 1445.97C1802.32 1440.68 1801.23 1436.31 1799.05 1432.88C1796.87 1429.46 1793.75 1426.96 1789.7 1425.41C1785.8 1423.85 1780.9 1423.07 1774.98 1423.07ZM1717.71 1393.62H1776.14C1787.99 1393.62 1798.74 1395.49 1808.4 1399.23C1818.06 1402.81 1825.77 1408.42 1831.54 1416.06C1837.46 1423.54 1840.42 1433.27 1840.42 1445.27C1840.42 1454.93 1838.16 1463.35 1833.64 1470.51C1829.12 1477.53 1823.36 1483.06 1816.35 1487.11L1853.27 1552.55H1812.14L1782.69 1497.39C1780.2 1497.55 1777.78 1497.63 1775.44 1497.63C1773.11 1497.47 1770.77 1497.39 1768.43 1497.39H1754.17V1552.55H1717.71V1393.62ZM1992.55 1393.62L1996.99 1422.37H1944.4V1552.55H1907.94V1422.37H1860.26V1393.62H1992.55Z" fill="white"/>
<path d="M179.81 1460.46L181.616 1460.2L181.386 1458.64H179.81V1460.46ZM184.017 1488.98V1490.81H186.132L185.823 1488.71L184.017 1488.98ZM130.493 1488.98V1487.15H128.667V1488.98H130.493ZM130.493 1552.55V1554.38H132.319V1552.55H130.493ZM94.0318 1552.55H92.2058V1554.38H94.0318V1552.55ZM94.0318 1393.85V1392.03H92.2058V1393.85H94.0318ZM190.795 1393.85L192.601 1393.59L192.371 1392.03H190.795V1393.85ZM195.002 1422.37V1424.19H197.117L196.808 1422.1L195.002 1422.37ZM130.493 1422.37V1420.54H128.667V1422.37H130.493ZM130.493 1460.46H128.667V1462.29H130.493V1460.46ZM178.003 1460.73L182.21 1489.25L185.823 1488.71L181.616 1460.2L178.003 1460.73ZM184.017 1487.15H130.493V1490.81H184.017V1487.15ZM128.667 1488.98V1552.55H132.319V1488.98H128.667ZM130.493 1550.73H94.0318V1554.38H130.493V1550.73ZM95.8578 1552.55V1393.85H92.2058V1552.55H95.8578ZM94.0318 1395.68H190.795V1392.03H94.0318V1395.68ZM188.988 1394.12L193.195 1422.63L196.808 1422.1L192.601 1393.59L188.988 1394.12ZM195.002 1420.54H130.493V1424.19H195.002V1420.54ZM128.667 1422.37V1460.46H132.319V1422.37H128.667ZM130.493 1462.29H179.81V1458.64H130.493V1462.29ZM300.221 1489.21V1491.04H302.866L301.928 1488.57L300.221 1489.21ZM281.523 1439.9L283.23 1439.25L281.479 1434.63L279.805 1439.28L281.523 1439.9ZM263.76 1489.21L262.042 1488.59L261.161 1491.04H263.76V1489.21ZM265.162 1393.62V1391.79H263.905L263.456 1392.97L265.162 1393.62ZM299.286 1393.62L300.99 1392.96L300.539 1391.79H299.286V1393.62ZM359.821 1550.68L360.033 1552.5L362.372 1552.22L361.525 1550.03L359.821 1550.68ZM323.827 1554.89L322.104 1555.49L322.587 1556.87L324.039 1556.7L323.827 1554.89ZM310.972 1518.19L312.696 1517.59L312.268 1516.37H310.972V1518.19ZM253.242 1518.19V1516.37H251.959L251.524 1517.58L253.242 1518.19ZM240.854 1552.55V1554.38H242.137L242.572 1553.17L240.854 1552.55ZM204.393 1552.55L202.687 1551.9L201.74 1554.38H204.393V1552.55ZM301.928 1488.57L283.23 1439.25L279.815 1440.54L298.514 1489.86L301.928 1488.57ZM279.805 1439.28L262.042 1488.59L265.477 1489.83L283.241 1440.52L279.805 1439.28ZM263.76 1491.04H300.221V1487.39H263.76V1491.04ZM265.162 1395.44H299.286V1391.79H265.162V1395.44ZM297.582 1394.28L358.117 1551.34L361.525 1550.03L300.99 1392.96L297.582 1394.28ZM359.609 1548.87L323.615 1553.08L324.039 1556.7L360.033 1552.5L359.609 1548.87ZM325.551 1554.29L312.696 1517.59L309.249 1518.8L322.104 1555.49L325.551 1554.29ZM310.972 1516.37H253.242V1520.02H310.972V1516.37ZM251.524 1517.58L239.137 1551.93L242.572 1553.17L254.96 1518.81L251.524 1517.58ZM240.854 1550.73H204.393V1554.38H240.854V1550.73ZM206.098 1553.2L266.867 1394.27L263.456 1392.97L202.687 1551.9L206.098 1553.2ZM420.022 1552.55V1554.38H421.848V1552.55H420.022ZM383.561 1552.55H381.735V1554.38H383.561V1552.55ZM383.561 1393.62V1391.79H381.735V1393.62H383.561ZM418.62 1393.62L420.115 1392.57L419.57 1391.79H418.62V1393.62ZM475.182 1474.25L473.687 1475.3L473.695 1475.31L475.182 1474.25ZM486.167 1489.68L484.68 1490.74L488.007 1495.41L487.993 1489.68L486.167 1489.68ZM485.933 1393.62V1391.79H484.103L484.107 1393.62L485.933 1393.62ZM522.395 1393.62H524.221V1391.79H522.395V1393.62ZM522.395 1552.55V1554.38H524.221V1552.55H522.395ZM487.336 1552.55L485.846 1553.61L486.392 1554.38H487.336V1552.55ZM429.138 1470.51L430.627 1469.46L430.623 1469.45L430.618 1469.45L429.138 1470.51ZM420.022 1457.89L421.503 1456.82L418.196 1452.25V1457.89H420.022ZM420.022 1550.73H383.561V1554.38H420.022V1550.73ZM385.387 1552.55V1393.62H381.735V1552.55H385.387ZM383.561 1395.44H418.62V1391.79H383.561V1395.44ZM417.125 1394.67L473.687 1475.3L476.677 1473.21L420.115 1392.57L417.125 1394.67ZM473.695 1475.31L484.68 1490.74L487.655 1488.62L476.669 1473.2L473.695 1475.31ZM487.993 1489.68L487.759 1393.61L484.107 1393.62L484.341 1489.68L487.993 1489.68ZM485.933 1395.44H522.395V1391.79H485.933V1395.44ZM520.569 1393.62V1552.55H524.221V1393.62H520.569ZM522.395 1550.73H487.336V1554.38H522.395V1550.73ZM488.825 1551.5L430.627 1469.46L427.648 1471.57L485.846 1553.61L488.825 1551.5ZM430.618 1469.45L421.503 1456.82L418.542 1458.96L427.657 1471.58L430.618 1469.45ZM418.196 1457.89V1552.55H421.848V1457.89H418.196ZM732.859 1393.62L734.663 1393.34L734.424 1391.79H732.859V1393.62ZM737.299 1422.37V1424.19H739.429L739.104 1422.09L737.299 1422.37ZM684.711 1422.37V1420.54H682.885V1422.37H684.711ZM684.711 1552.55V1554.38H686.537V1552.55H684.711ZM648.249 1552.55H646.423V1554.38H648.249V1552.55ZM648.249 1422.37H650.075V1420.54H648.249V1422.37ZM600.569 1422.37H598.743V1424.19H600.569V1422.37ZM600.569 1393.62V1391.79H598.743V1393.62H600.569ZM731.054 1393.9L735.495 1422.65L739.104 1422.09L734.663 1393.34L731.054 1393.9ZM737.299 1420.54H684.711V1424.19H737.299V1420.54ZM682.885 1422.37V1552.55H686.537V1422.37H682.885ZM684.711 1550.73H648.249V1554.38H684.711V1550.73ZM650.075 1552.55V1422.37H646.423V1552.55H650.075ZM648.249 1420.54H600.569V1424.19H648.249V1420.54ZM602.395 1422.37V1393.62H598.743V1422.37H602.395ZM600.569 1395.44H732.859V1391.79H600.569V1395.44ZM797.711 1423.07V1421.24H795.885V1423.07H797.711ZM797.711 1468.18H795.885V1470H797.711V1468.18ZM832.77 1465.61L832.058 1463.92L832.046 1463.93L832.034 1463.93L832.77 1465.61ZM842.352 1458.13L840.866 1457.07L842.352 1458.13ZM842.586 1432.88L841.046 1433.86L842.586 1432.88ZM833.237 1425.41L832.559 1427.1L832.57 1427.11L832.581 1427.11L833.237 1425.41ZM761.249 1393.62V1391.79H759.423V1393.62H761.249ZM851.935 1399.23L851.276 1400.93L851.288 1400.94L851.3 1400.94L851.935 1399.23ZM875.074 1416.06L873.617 1417.16L873.629 1417.17L873.642 1417.19L875.074 1416.06ZM877.178 1470.51L878.713 1471.5L878.717 1471.5L878.722 1471.49L877.178 1470.51ZM859.882 1487.11L858.968 1485.53L857.403 1486.43L858.292 1488.01L859.882 1487.11ZM896.811 1552.55V1554.38H899.938L898.401 1551.66L896.811 1552.55ZM855.675 1552.55L854.064 1553.41L854.58 1554.38H855.675V1552.55ZM826.225 1497.39L827.836 1496.53L827.283 1495.5L826.111 1495.57L826.225 1497.39ZM818.98 1497.63L818.858 1499.45L818.919 1499.45H818.98V1497.63ZM797.711 1497.39V1495.57H795.885V1497.39H797.711ZM797.711 1552.55V1554.38H799.536V1552.55H797.711ZM761.249 1552.55H759.423V1554.38H761.249V1552.55ZM818.512 1421.24H797.711V1424.89H818.512V1421.24ZM795.885 1423.07V1468.18H799.536V1423.07H795.885ZM797.711 1470H819.213V1466.35H797.711V1470ZM819.213 1470C824.557 1470 829.335 1469.11 833.505 1467.28L832.034 1463.93C828.413 1465.53 824.154 1466.35 819.213 1466.35V1470ZM833.481 1467.29C837.813 1465.46 841.287 1462.76 843.838 1459.19L840.866 1457.07C838.743 1460.04 835.829 1462.33 832.058 1463.92L833.481 1467.29ZM843.838 1459.19C846.438 1455.55 847.684 1451.11 847.684 1445.97H844.032C844.032 1450.5 842.941 1454.16 840.866 1457.07L843.838 1459.19ZM847.684 1445.97C847.684 1440.43 846.543 1435.7 844.127 1431.9L841.046 1433.86C842.992 1436.92 844.032 1440.92 844.032 1445.97H847.684ZM844.127 1431.9C841.721 1428.12 838.282 1425.39 833.892 1423.7L832.581 1427.11C836.294 1428.54 839.089 1430.79 841.046 1433.86L844.127 1431.9ZM833.915 1423.71C829.735 1422.04 824.577 1421.24 818.512 1421.24V1424.89C824.289 1424.89 828.948 1425.66 832.559 1427.1L833.915 1423.71ZM761.249 1395.44H819.681V1391.79H761.249V1395.44ZM819.681 1395.44C831.329 1395.44 841.853 1397.28 851.276 1400.93L852.594 1397.53C842.695 1393.69 831.716 1391.79 819.681 1391.79V1395.44ZM851.3 1400.94C860.66 1404.41 868.078 1409.82 873.617 1417.16L876.531 1414.96C870.54 1407.02 862.531 1401.21 852.57 1397.52L851.3 1400.94ZM873.642 1417.19C879.248 1424.27 882.13 1433.58 882.13 1445.27H885.782C885.782 1432.97 882.742 1422.8 876.506 1414.92L873.642 1417.19ZM882.13 1445.27C882.13 1454.64 879.943 1462.7 875.633 1469.54L878.722 1471.49C883.45 1463.99 885.782 1455.23 885.782 1445.27H882.13ZM875.643 1469.53C871.276 1476.3 865.721 1481.63 858.968 1485.53L860.795 1488.69C868.066 1484.49 874.042 1478.75 878.713 1471.5L875.643 1469.53ZM858.292 1488.01L895.22 1553.45L898.401 1551.66L861.472 1486.21L858.292 1488.01ZM896.811 1550.73H855.675V1554.38H896.811V1550.73ZM857.286 1551.69L827.836 1496.53L824.614 1498.25L854.064 1553.41L857.286 1551.69ZM826.111 1495.57C823.654 1495.72 821.276 1495.8 818.98 1495.8V1499.45C821.357 1499.45 823.811 1499.37 826.339 1499.22L826.111 1495.57ZM819.101 1495.8C816.724 1495.65 814.346 1495.57 811.968 1495.57V1499.22C814.265 1499.22 816.561 1499.3 818.858 1499.45L819.101 1495.8ZM811.968 1495.57H797.711V1499.22H811.968V1495.57ZM795.885 1497.39V1552.55H799.536V1497.39H795.885ZM797.711 1550.73H761.249V1554.38H797.711V1550.73ZM763.075 1552.55V1393.62H759.423V1552.55H763.075ZM999.621 1489.21V1491.04H1002.27L1001.33 1488.57L999.621 1489.21ZM980.923 1439.9L982.631 1439.25L980.879 1434.63L979.205 1439.28L980.923 1439.9ZM963.16 1489.21L961.442 1488.59L960.561 1491.04H963.16V1489.21ZM964.562 1393.62V1391.79H963.306L962.857 1392.97L964.562 1393.62ZM998.686 1393.62L1000.39 1392.96L999.94 1391.79H998.686V1393.62ZM1059.22 1550.68L1059.43 1552.5L1061.77 1552.22L1060.93 1550.03L1059.22 1550.68ZM1023.23 1554.89L1021.5 1555.49L1021.99 1556.87L1023.44 1556.7L1023.23 1554.89ZM1010.37 1518.19L1012.1 1517.59L1011.67 1516.37H1010.37V1518.19ZM952.642 1518.19V1516.37H951.359L950.924 1517.58L952.642 1518.19ZM940.255 1552.55V1554.38H941.537L941.972 1553.17L940.255 1552.55ZM903.793 1552.55L902.088 1551.9L901.14 1554.38H903.793V1552.55ZM1001.33 1488.57L982.631 1439.25L979.216 1440.54L997.914 1489.86L1001.33 1488.57ZM979.205 1439.28L961.442 1488.59L964.878 1489.83L982.641 1440.52L979.205 1439.28ZM963.16 1491.04H999.621V1487.39H963.16V1491.04ZM964.562 1395.44H998.686V1391.79H964.562V1395.44ZM996.983 1394.28L1057.52 1551.34L1060.93 1550.03L1000.39 1392.96L996.983 1394.28ZM1059.01 1548.87L1023.02 1553.08L1023.44 1556.7L1059.43 1552.5L1059.01 1548.87ZM1024.95 1554.29L1012.1 1517.59L1008.65 1518.8L1021.5 1555.49L1024.95 1554.29ZM1010.37 1516.37H952.642V1520.02H1010.37V1516.37ZM950.924 1517.58L938.537 1551.93L941.972 1553.17L954.36 1518.81L950.924 1517.58ZM940.255 1550.73H903.793V1554.38H940.255V1550.73ZM905.499 1553.2L966.268 1394.27L962.857 1392.97L902.088 1551.9L905.499 1553.2ZM1119.42 1552.55V1554.38H1121.25V1552.55H1119.42ZM1082.96 1552.55H1081.14V1554.38H1082.96V1552.55ZM1082.96 1393.62V1391.79H1081.14V1393.62H1082.96ZM1118.02 1393.62L1119.52 1392.57L1118.97 1391.79H1118.02V1393.62ZM1174.58 1474.25L1173.09 1475.3L1173.09 1475.31L1174.58 1474.25ZM1185.57 1489.68L1184.08 1490.74L1187.41 1495.41L1187.39 1489.68L1185.57 1489.68ZM1185.33 1393.62V1391.79H1183.5L1183.51 1393.62L1185.33 1393.62ZM1221.8 1393.62H1223.62V1391.79H1221.8V1393.62ZM1221.8 1552.55V1554.38H1223.62V1552.55H1221.8ZM1186.74 1552.55L1185.25 1553.61L1185.79 1554.38H1186.74V1552.55ZM1128.54 1470.51L1130.03 1469.46L1130.02 1469.45L1130.02 1469.45L1128.54 1470.51ZM1119.42 1457.89L1120.9 1456.82L1117.6 1452.25V1457.89H1119.42ZM1119.42 1550.73H1082.96V1554.38H1119.42V1550.73ZM1084.79 1552.55V1393.62H1081.14V1552.55H1084.79ZM1082.96 1395.44H1118.02V1391.79H1082.96V1395.44ZM1116.53 1394.67L1173.09 1475.3L1176.08 1473.21L1119.52 1392.57L1116.53 1394.67ZM1173.09 1475.31L1184.08 1490.74L1187.05 1488.62L1176.07 1473.2L1173.09 1475.31ZM1187.39 1489.68L1187.16 1393.61L1183.51 1393.62L1183.74 1489.68L1187.39 1489.68ZM1185.33 1395.44H1221.8V1391.79H1185.33V1395.44ZM1219.97 1393.62V1552.55H1223.62V1393.62H1219.97ZM1221.8 1550.73H1186.74V1554.38H1221.8V1550.73ZM1188.23 1551.5L1130.03 1469.46L1127.05 1471.57L1185.25 1553.61L1188.23 1551.5ZM1130.02 1469.45L1120.9 1456.82L1117.94 1458.96L1127.06 1471.58L1130.02 1469.45ZM1117.6 1457.89V1552.55H1121.25V1457.89H1117.6ZM1252.83 1542.5L1251.12 1541.87L1250.6 1543.28L1251.88 1544.06L1252.83 1542.5ZM1263.35 1513.99L1264.2 1512.37L1262.36 1511.4L1261.64 1513.36L1263.35 1513.99ZM1274.33 1518.9L1273.67 1520.6L1273.69 1520.61L1273.72 1520.62L1274.33 1518.9ZM1315 1522.64L1314.43 1520.9L1314.41 1520.91L1314.4 1520.91L1315 1522.64ZM1323.18 1517.49L1321.76 1516.35L1321.75 1516.36L1321.75 1516.37L1323.18 1517.49ZM1321.78 1502.3L1320.57 1503.67L1320.59 1503.69L1320.61 1503.7L1321.78 1502.3ZM1311.5 1495.29L1310.57 1496.86L1310.59 1496.87L1310.61 1496.89L1311.5 1495.29ZM1298.64 1487.58L1297.68 1489.13L1297.69 1489.14L1298.64 1487.58ZM1282.28 1477.53L1281.3 1479.07L1281.31 1479.07L1281.33 1479.08L1282.28 1477.53ZM1266.62 1465.84L1265.4 1467.2L1265.41 1467.21L1265.42 1467.22L1266.62 1465.84ZM1255.17 1451.82L1253.55 1452.67L1253.57 1452.7L1253.59 1452.73L1255.17 1451.82ZM1250.96 1434.29L1249.14 1434.25L1249.14 1434.27V1434.29H1250.96ZM1257.97 1411.85L1259.48 1412.89L1259.48 1412.88L1259.49 1412.87L1257.97 1411.85ZM1277.61 1396.19L1278.34 1397.86L1278.35 1397.86L1278.36 1397.85L1277.61 1396.19ZM1353.8 1402.73L1355.48 1403.45L1356.11 1401.98L1354.73 1401.16L1353.8 1402.73ZM1342.35 1429.38L1341.63 1431.06L1343.31 1431.78L1344.03 1430.1L1342.35 1429.38ZM1330.43 1424.94L1329.83 1426.66L1329.86 1426.67L1329.9 1426.68L1330.43 1424.94ZM1319.68 1422.13L1319.27 1423.91L1319.32 1423.92L1319.36 1423.93L1319.68 1422.13ZM1294.2 1424.7L1295.2 1426.23L1295.21 1426.23L1295.21 1426.22L1294.2 1424.7ZM1292.57 1442.7L1293.81 1441.37L1292.57 1442.7ZM1302.62 1449.48L1303.46 1447.86L1302.62 1449.48ZM1315.7 1457.19L1314.7 1458.72L1314.74 1458.75L1314.78 1458.77L1315.7 1457.19ZM1332.53 1467.24L1331.58 1468.8L1331.59 1468.81L1331.6 1468.81L1332.53 1467.24ZM1359.41 1492.72L1357.81 1493.59L1357.82 1493.62L1357.84 1493.65L1359.41 1492.72ZM1356.37 1533.62L1354.9 1532.55L1354.89 1532.55L1356.37 1533.62ZM1335.34 1549.75L1336.06 1551.42L1336.07 1551.42L1336.07 1551.42L1335.34 1549.75ZM1289.99 1554.42L1290.3 1552.62L1290.27 1552.62L1290.24 1552.61L1289.99 1554.42ZM1276.2 1551.62L1275.72 1553.38L1275.73 1553.38L1275.73 1553.38L1276.2 1551.62ZM1263.12 1547.41L1262.46 1549.12L1262.47 1549.12L1262.48 1549.12L1263.12 1547.41ZM1254.54 1543.13L1265.06 1514.62L1261.64 1513.36L1251.12 1541.87L1254.54 1543.13ZM1262.5 1515.6C1265.54 1517.2 1269.26 1518.87 1273.67 1520.6L1275 1517.2C1270.68 1515.5 1267.08 1513.89 1264.2 1512.37L1262.5 1515.6ZM1273.72 1520.62C1278.16 1522.2 1282.82 1523.54 1287.72 1524.65L1288.53 1521.09C1283.76 1520.01 1279.24 1518.71 1274.95 1517.18L1273.72 1520.62ZM1287.72 1524.65C1292.66 1525.76 1297.23 1526.33 1301.45 1526.33V1522.68C1297.56 1522.68 1293.25 1522.16 1288.53 1521.09L1287.72 1524.65ZM1301.45 1526.33C1307.02 1526.33 1311.76 1525.7 1315.6 1524.36L1314.4 1520.91C1311.08 1522.07 1306.78 1522.68 1301.45 1522.68V1526.33ZM1315.58 1524.37C1319.52 1523.05 1322.61 1521.18 1324.62 1518.62L1321.75 1516.37C1320.33 1518.17 1317.96 1519.72 1314.43 1520.9L1315.58 1524.37ZM1324.61 1518.63C1326.72 1516 1327.81 1513.03 1327.81 1509.78H1324.16C1324.16 1512.14 1323.39 1514.32 1321.76 1516.35L1324.61 1518.63ZM1327.81 1509.78C1327.81 1506.41 1326.01 1503.44 1322.95 1500.9L1320.61 1503.7C1323.17 1505.83 1324.16 1507.86 1324.16 1509.78H1327.81ZM1322.99 1500.93C1320.21 1498.48 1316.67 1496.07 1312.38 1493.69L1310.61 1496.89C1314.74 1499.18 1318.05 1501.45 1320.57 1503.67L1322.99 1500.93ZM1312.43 1493.72C1308.23 1491.23 1303.95 1488.66 1299.59 1486.02L1297.69 1489.14C1302.06 1491.79 1306.35 1494.36 1310.57 1496.86L1312.43 1493.72ZM1299.6 1486.02C1294.3 1482.75 1288.84 1479.4 1283.23 1475.97L1281.33 1479.08C1286.94 1482.51 1292.39 1485.86 1297.68 1489.13L1299.6 1486.02ZM1283.26 1475.99C1277.73 1472.45 1272.58 1468.61 1267.82 1464.46L1265.42 1467.22C1270.32 1471.49 1275.62 1475.43 1281.3 1479.07L1283.26 1475.99ZM1267.84 1464.48C1263.3 1460.4 1259.61 1455.87 1256.75 1450.91L1253.59 1452.73C1256.65 1458.05 1260.59 1462.87 1265.4 1467.2L1267.84 1464.48ZM1256.78 1450.96C1254.13 1445.94 1252.79 1440.4 1252.79 1434.29H1249.14C1249.14 1440.95 1250.6 1447.09 1253.55 1452.67L1256.78 1450.96ZM1252.79 1434.32C1252.94 1426.24 1255.17 1419.12 1259.48 1412.89L1256.47 1410.81C1251.74 1417.67 1249.3 1425.5 1249.14 1434.25L1252.79 1434.32ZM1259.49 1412.87C1263.78 1406.5 1270.03 1401.49 1278.34 1397.86L1276.88 1394.52C1268.04 1398.37 1261.2 1403.8 1256.46 1410.83L1259.49 1412.87ZM1278.36 1397.85C1286.64 1394.09 1296.5 1392.17 1307.99 1392.17V1388.52C1296.11 1388.52 1285.71 1390.5 1276.85 1394.53L1278.36 1397.85ZM1307.99 1392.17C1315.76 1392.17 1323.69 1393.31 1331.8 1395.61L1332.8 1392.1C1324.39 1389.72 1316.12 1388.52 1307.99 1388.52V1392.17ZM1331.8 1395.61C1339.94 1397.91 1346.96 1400.82 1352.87 1404.31L1354.73 1401.16C1348.49 1397.48 1341.17 1394.47 1332.8 1392.1L1331.8 1395.61ZM1352.12 1402.01L1340.67 1428.66L1344.03 1430.1L1355.48 1403.45L1352.12 1402.01ZM1343.07 1427.7C1338.66 1425.81 1334.62 1424.31 1330.96 1423.19L1329.9 1426.68C1333.4 1427.75 1337.31 1429.21 1341.63 1431.06L1343.07 1427.7ZM1331.03 1423.21C1327.36 1421.94 1323.68 1420.98 1319.99 1420.33L1319.36 1423.93C1322.85 1424.54 1326.33 1425.45 1329.83 1426.66L1331.03 1423.21ZM1320.08 1420.35C1316.5 1419.54 1312.63 1419.14 1308.46 1419.14V1422.79C1312.39 1422.79 1316 1423.17 1319.27 1423.91L1320.08 1420.35ZM1308.46 1419.14C1302.43 1419.14 1297.3 1420.44 1293.19 1423.18L1295.21 1426.22C1298.58 1423.98 1302.95 1422.79 1308.46 1422.79V1419.14ZM1293.2 1423.17C1289.11 1425.84 1287 1429.68 1287 1434.52H1290.65C1290.65 1430.94 1292.12 1428.24 1295.2 1426.23L1293.2 1423.17ZM1287 1434.52C1287 1438.19 1288.49 1441.39 1291.32 1444.03L1293.81 1441.37C1291.65 1439.34 1290.65 1437.08 1290.65 1434.52H1287ZM1291.32 1444.03C1293.97 1446.52 1297.47 1448.87 1301.77 1451.1L1303.46 1447.86C1299.34 1445.73 1296.15 1443.56 1293.81 1441.37L1291.32 1444.03ZM1301.77 1451.1C1305.92 1453.25 1310.23 1455.79 1314.7 1458.72L1316.7 1455.66C1312.14 1452.67 1307.72 1450.07 1303.46 1447.86L1301.77 1451.1ZM1314.78 1458.77C1320.38 1462.04 1325.98 1465.38 1331.58 1468.8L1333.48 1465.68C1327.86 1462.25 1322.24 1458.89 1316.62 1455.61L1314.78 1458.77ZM1331.6 1468.81C1337.27 1472.18 1342.39 1475.93 1346.97 1480.05L1349.41 1477.34C1344.64 1473.05 1339.33 1469.16 1333.47 1465.67L1331.6 1468.81ZM1346.97 1480.05C1351.5 1484.13 1355.11 1488.65 1357.81 1493.59L1361.01 1491.84C1358.1 1486.51 1354.23 1481.67 1349.41 1477.34L1346.97 1480.05ZM1357.84 1493.65C1360.61 1498.31 1362.03 1503.82 1362.03 1510.25H1365.68C1365.68 1503.27 1364.13 1497.1 1360.98 1491.79L1357.84 1493.65ZM1362.03 1510.25C1362.03 1518.6 1359.65 1526.01 1354.9 1532.55L1357.85 1534.69C1363.07 1527.52 1365.68 1519.35 1365.68 1510.25H1362.03ZM1354.89 1532.55C1350.29 1538.94 1343.56 1544.13 1334.6 1548.08L1336.07 1551.42C1345.5 1547.26 1352.8 1541.7 1357.85 1534.69L1354.89 1532.55ZM1334.61 1548.07C1325.86 1551.84 1315.14 1553.77 1302.38 1553.77V1557.42C1315.49 1557.42 1326.73 1555.44 1336.06 1551.42L1334.61 1548.07ZM1302.38 1553.77C1298.77 1553.77 1294.74 1553.39 1290.3 1552.62L1289.68 1556.22C1294.28 1557.01 1298.52 1557.42 1302.38 1557.42V1553.77ZM1290.24 1552.61C1285.8 1552 1281.28 1551.08 1276.67 1549.85L1275.73 1553.38C1280.48 1554.65 1285.15 1555.6 1289.74 1556.23L1290.24 1552.61ZM1276.69 1549.86C1272.22 1548.62 1267.91 1547.24 1263.75 1545.7L1262.48 1549.12C1266.74 1550.7 1271.15 1552.12 1275.72 1553.38L1276.69 1549.86ZM1263.77 1545.71C1259.79 1544.18 1256.47 1542.59 1253.78 1540.94L1251.88 1544.06C1254.8 1545.85 1258.34 1547.53 1262.46 1549.12L1263.77 1545.71ZM1426.98 1552.55V1554.38H1428.81V1552.55H1426.98ZM1390.52 1552.55H1388.7V1554.38H1390.52V1552.55ZM1390.52 1393.62V1391.79H1388.7V1393.62H1390.52ZM1481.21 1399.46L1480.53 1401.16L1480.54 1401.16L1480.55 1401.16L1481.21 1399.46ZM1504.35 1417.22L1502.86 1418.28L1502.87 1418.3L1502.88 1418.32L1504.35 1417.22ZM1507.62 1471.92L1506.02 1471.04L1506.01 1471.06L1506 1471.07L1507.62 1471.92ZM1492.89 1488.75L1493.94 1490.24L1492.89 1488.75ZM1426.98 1501.83V1500.01H1425.16V1501.83H1426.98ZM1426.98 1423.07V1421.24H1425.16V1423.07H1426.98ZM1426.98 1472.62H1425.16V1474.44H1426.98V1472.62ZM1462.04 1469.81L1461.28 1468.16L1461.27 1468.16L1461.25 1468.17L1462.04 1469.81ZM1471.39 1461.63L1469.84 1460.67L1469.84 1460.67L1469.83 1460.68L1471.39 1461.63ZM1475.13 1448.78L1476.96 1448.84L1476.96 1448.81V1448.78H1475.13ZM1471.86 1434.52L1470.27 1435.41L1470.27 1435.43L1470.28 1435.44L1471.86 1434.52ZM1462.51 1425.87L1463.28 1424.21L1462.51 1425.87ZM1426.98 1550.73H1390.52V1554.38H1426.98V1550.73ZM1392.35 1552.55V1393.62H1388.7V1552.55H1392.35ZM1390.52 1395.44H1448.95V1391.79H1390.52V1395.44ZM1448.95 1395.44C1460.59 1395.44 1471.11 1397.36 1480.53 1401.16L1481.89 1397.77C1471.99 1393.77 1461 1391.79 1448.95 1391.79V1395.44ZM1480.55 1401.16C1489.89 1404.78 1497.31 1410.48 1502.86 1418.28L1505.84 1416.17C1499.85 1407.76 1491.85 1401.62 1481.87 1397.76L1480.55 1401.16ZM1502.88 1418.32C1508.51 1425.87 1511.4 1435.67 1511.4 1447.84H1515.05C1515.05 1435.09 1512.02 1424.47 1505.81 1416.13L1502.88 1418.32ZM1511.4 1447.84C1511.4 1456.79 1509.59 1464.5 1506.02 1471.04L1509.22 1472.79C1513.13 1465.62 1515.05 1457.29 1515.05 1447.84H1511.4ZM1506 1471.07C1502.55 1477.67 1497.84 1483.06 1491.85 1487.25L1493.94 1490.24C1500.42 1485.71 1505.52 1479.87 1509.24 1472.76L1506 1471.07ZM1491.85 1487.25C1485.8 1491.48 1478.9 1494.67 1471.14 1496.8L1472.11 1500.32C1480.24 1498.09 1487.52 1494.73 1493.94 1490.24L1491.85 1487.25ZM1471.14 1496.8C1463.36 1498.94 1455.34 1500.01 1447.08 1500.01V1503.66C1455.66 1503.66 1464 1502.55 1472.11 1500.32L1471.14 1496.8ZM1447.08 1500.01H1426.98V1503.66H1447.08V1500.01ZM1425.16 1501.83V1552.55H1428.81V1501.83H1425.16ZM1447.79 1421.24H1426.98V1424.89H1447.79V1421.24ZM1425.16 1423.07V1472.62H1428.81V1423.07H1425.16ZM1426.98 1474.44H1448.49V1470.79H1426.98V1474.44ZM1448.49 1474.44C1453.85 1474.44 1458.65 1473.47 1462.83 1471.46L1461.25 1468.17C1457.65 1469.9 1453.41 1470.79 1448.49 1470.79V1474.44ZM1462.81 1471.47C1467.17 1469.46 1470.57 1466.5 1472.95 1462.58L1469.83 1460.68C1467.85 1463.94 1465.02 1466.43 1461.28 1468.16L1462.81 1471.47ZM1472.94 1462.6C1475.46 1458.56 1476.79 1453.96 1476.96 1448.84L1473.31 1448.72C1473.16 1453.26 1471.99 1457.22 1469.84 1460.67L1472.94 1462.6ZM1476.96 1448.78C1476.96 1442.79 1475.83 1437.7 1473.44 1433.6L1470.28 1435.44C1472.26 1438.82 1473.31 1443.23 1473.31 1448.78H1476.96ZM1473.45 1433.63C1471.08 1429.4 1467.68 1426.25 1463.28 1424.21L1461.74 1427.53C1465.45 1429.24 1468.27 1431.85 1470.27 1435.41L1473.45 1433.63ZM1463.28 1424.21C1458.92 1422.21 1453.74 1421.24 1447.79 1421.24V1424.89C1453.36 1424.89 1457.99 1425.8 1461.74 1427.53L1463.28 1424.21ZM1608.56 1555.82V1557.65H1608.57L1608.58 1557.65L1608.56 1555.82ZM1565.56 1544.84L1566.51 1543.28L1565.56 1544.84ZM1537.98 1515.16L1539.6 1514.32L1537.98 1515.16ZM1538.68 1430.55L1540.28 1431.43L1540.28 1431.42L1538.68 1430.55ZM1566.96 1401.1L1567.88 1402.67L1567.89 1402.67L1567.9 1402.67L1566.96 1401.1ZM1608.56 1390.11V1388.29H1608.55L1608.54 1388.29L1608.56 1390.11ZM1651.8 1401.1L1650.84 1402.65L1650.85 1402.66L1651.8 1401.1ZM1679.15 1430.78L1677.51 1431.6L1677.52 1431.61L1677.53 1431.62L1679.15 1430.78ZM1678.45 1515.62L1676.84 1514.75L1676.84 1514.76L1678.45 1515.62ZM1650.4 1545.07L1651.32 1546.65L1651.33 1546.65L1651.34 1546.64L1650.4 1545.07ZM1629.83 1519.36L1630.78 1520.92L1629.83 1519.36ZM1645.02 1501.83L1643.38 1501.03L1643.38 1501.04L1643.38 1501.04L1645.02 1501.83ZM1645.72 1445.74L1644.05 1446.46L1644.05 1446.47L1644.06 1446.49L1645.72 1445.74ZM1631.47 1427.74L1630.4 1429.22L1630.41 1429.23L1630.42 1429.24L1631.47 1427.74ZM1587.76 1427.51L1588.77 1429.03L1587.76 1427.51ZM1571.17 1500.2L1569.48 1500.9L1569.49 1500.92L1569.49 1500.93L1571.17 1500.2ZM1585.66 1518.66L1584.58 1520.14L1584.61 1520.16L1584.63 1520.17L1585.66 1518.66ZM1608.56 1554C1592.16 1554 1578.17 1550.4 1566.51 1543.28L1564.6 1546.4C1576.94 1553.93 1591.62 1557.65 1608.56 1557.65V1554ZM1566.51 1543.28C1554.8 1536.13 1545.84 1526.49 1539.6 1514.32L1536.35 1515.99C1542.89 1528.76 1552.32 1538.9 1564.6 1546.4L1566.51 1543.28ZM1539.6 1514.32C1533.36 1502.14 1530.22 1488.63 1530.22 1473.79H1526.57C1526.57 1489.17 1529.82 1503.25 1536.35 1515.99L1539.6 1514.32ZM1530.22 1473.79C1530.22 1457.69 1533.59 1443.59 1540.28 1431.43L1537.08 1429.67C1530.05 1442.44 1526.57 1457.16 1526.57 1473.79H1530.22ZM1540.28 1431.42C1546.98 1419.08 1556.18 1409.51 1567.88 1402.67L1566.04 1399.52C1553.74 1406.71 1544.08 1416.77 1537.07 1429.68L1540.28 1431.42ZM1567.9 1402.67C1579.58 1395.68 1593.12 1392.09 1608.58 1391.94L1608.54 1388.29C1592.52 1388.45 1578.33 1392.18 1566.02 1399.53L1567.9 1402.67ZM1608.56 1391.94C1625.28 1391.94 1639.35 1395.54 1650.84 1402.65L1652.76 1399.54C1640.57 1392.01 1625.81 1388.29 1608.56 1388.29V1391.94ZM1650.85 1402.66C1662.56 1409.8 1671.44 1419.44 1677.51 1431.6L1680.78 1429.96C1674.39 1417.19 1665.04 1407.04 1652.75 1399.54L1650.85 1402.66ZM1677.53 1431.62C1683.77 1443.65 1686.9 1457.14 1686.9 1472.15H1690.56C1690.56 1456.62 1687.3 1442.53 1680.77 1429.94L1677.53 1431.62ZM1686.9 1472.15C1686.9 1488.25 1683.53 1502.43 1676.84 1514.75L1680.05 1516.5C1687.07 1503.57 1690.56 1488.77 1690.56 1472.15H1686.9ZM1676.84 1514.76C1670.29 1526.94 1661.17 1536.51 1649.46 1543.51L1651.34 1546.64C1663.62 1539.3 1673.2 1529.24 1680.05 1516.49L1676.84 1514.76ZM1649.48 1543.5C1637.79 1550.33 1624.17 1553.85 1608.54 1554L1608.58 1557.65C1624.74 1557.49 1639.01 1553.84 1651.32 1546.65L1649.48 1543.5ZM1608.33 1527.03C1616.59 1527.03 1624.09 1525 1630.78 1520.92L1628.88 1517.8C1622.8 1521.51 1615.96 1523.38 1608.33 1523.38V1527.03ZM1630.78 1520.92C1637.52 1516.82 1642.8 1510.68 1646.67 1502.62L1643.38 1501.04C1639.77 1508.57 1634.92 1514.12 1628.88 1517.8L1630.78 1520.92ZM1646.66 1502.64C1650.72 1494.37 1652.69 1484.18 1652.69 1472.15H1649.04C1649.04 1483.8 1647.12 1493.4 1643.38 1501.03L1646.66 1502.64ZM1652.69 1472.15C1652.69 1461.97 1650.94 1452.9 1647.39 1444.99L1644.06 1446.49C1647.36 1453.85 1649.04 1462.39 1649.04 1472.15H1652.69ZM1647.4 1445.02C1644.01 1437.1 1639.05 1430.82 1632.51 1426.25L1630.42 1429.24C1636.35 1433.39 1640.9 1439.11 1644.05 1446.46L1647.4 1445.02ZM1632.54 1426.26C1625.95 1421.49 1618 1419.14 1608.8 1419.14V1422.79C1617.35 1422.79 1624.52 1424.96 1630.4 1429.22L1632.54 1426.26ZM1608.8 1419.14C1600.94 1419.14 1593.58 1421.44 1586.75 1425.99L1588.77 1429.03C1595.03 1424.85 1601.7 1422.79 1608.8 1422.79V1419.14ZM1586.75 1425.99C1579.91 1430.55 1574.49 1436.88 1570.47 1444.92L1573.73 1446.56C1577.5 1439.02 1582.52 1433.2 1588.77 1429.03L1586.75 1425.99ZM1570.47 1444.92C1566.42 1453.02 1564.43 1462.58 1564.43 1473.55H1568.08C1568.08 1463.02 1569.99 1454.04 1573.73 1446.56L1570.47 1444.92ZM1564.43 1473.55C1564.43 1483.73 1566.1 1492.85 1569.48 1500.9L1572.85 1499.49C1569.69 1491.96 1568.08 1483.33 1568.08 1473.55H1564.43ZM1569.49 1500.93C1573.04 1508.99 1578.06 1515.41 1584.58 1520.14L1586.73 1517.18C1580.79 1512.87 1576.15 1506.99 1572.84 1499.46L1569.49 1500.93ZM1584.63 1520.17C1591.36 1524.77 1599.28 1527.03 1608.33 1527.03V1523.38C1599.92 1523.38 1592.73 1521.28 1586.69 1517.15L1584.63 1520.17ZM1754.17 1423.07V1421.24H1752.35V1423.07H1754.17ZM1754.17 1468.18H1752.35V1470H1754.17V1468.18ZM1789.23 1465.61L1788.52 1463.92L1788.51 1463.93L1788.5 1463.93L1789.23 1465.61ZM1798.82 1458.13L1797.33 1457.07L1798.82 1458.13ZM1799.05 1432.88L1797.51 1433.86L1799.05 1432.88ZM1789.7 1425.41L1789.02 1427.1L1789.03 1427.11L1789.04 1427.11L1789.7 1425.41ZM1717.71 1393.62V1391.79H1715.89V1393.62H1717.71ZM1808.4 1399.23L1807.74 1400.93L1807.75 1400.94L1807.76 1400.94L1808.4 1399.23ZM1831.54 1416.06L1830.08 1417.16L1830.09 1417.17L1830.11 1417.19L1831.54 1416.06ZM1833.64 1470.51L1835.18 1471.5L1835.18 1471.5L1835.19 1471.49L1833.64 1470.51ZM1816.35 1487.11L1815.43 1485.53L1813.87 1486.43L1814.76 1488.01L1816.35 1487.11ZM1853.27 1552.55V1554.38H1856.4L1854.86 1551.66L1853.27 1552.55ZM1812.14 1552.55L1810.53 1553.41L1811.04 1554.38H1812.14V1552.55ZM1782.69 1497.39L1784.3 1496.53L1783.75 1495.5L1782.57 1495.57L1782.69 1497.39ZM1775.44 1497.63L1775.32 1499.45L1775.38 1499.45H1775.44V1497.63ZM1754.17 1497.39V1495.57H1752.35V1497.39H1754.17ZM1754.17 1552.55V1554.38H1756V1552.55H1754.17ZM1717.71 1552.55H1715.89V1554.38H1717.71V1552.55ZM1774.98 1421.24H1754.17V1424.89H1774.98V1421.24ZM1752.35 1423.07V1468.18H1756V1423.07H1752.35ZM1754.17 1470H1775.68V1466.35H1754.17V1470ZM1775.68 1470C1781.02 1470 1785.8 1469.11 1789.97 1467.28L1788.5 1463.93C1784.88 1465.53 1780.62 1466.35 1775.68 1466.35V1470ZM1789.94 1467.29C1794.28 1465.46 1797.75 1462.76 1800.3 1459.19L1797.33 1457.07C1795.21 1460.04 1792.29 1462.33 1788.52 1463.92L1789.94 1467.29ZM1800.3 1459.19C1802.9 1455.55 1804.15 1451.11 1804.15 1445.97H1800.5C1800.5 1450.5 1799.4 1454.16 1797.33 1457.07L1800.3 1459.19ZM1804.15 1445.97C1804.15 1440.43 1803.01 1435.7 1800.59 1431.9L1797.51 1433.86C1799.46 1436.92 1800.5 1440.92 1800.5 1445.97H1804.15ZM1800.59 1431.9C1798.18 1428.12 1794.75 1425.39 1790.36 1423.7L1789.04 1427.11C1792.76 1428.54 1795.55 1430.79 1797.51 1433.86L1800.59 1431.9ZM1790.38 1423.71C1786.2 1422.04 1781.04 1421.24 1774.98 1421.24V1424.89C1780.75 1424.89 1785.41 1425.66 1789.02 1427.1L1790.38 1423.71ZM1717.71 1395.44H1776.14V1391.79H1717.71V1395.44ZM1776.14 1395.44C1787.79 1395.44 1798.32 1397.28 1807.74 1400.93L1809.06 1397.53C1799.16 1393.69 1788.18 1391.79 1776.14 1391.79V1395.44ZM1807.76 1400.94C1817.12 1404.41 1824.54 1409.82 1830.08 1417.16L1832.99 1414.96C1827 1407.02 1818.99 1401.21 1809.03 1397.52L1807.76 1400.94ZM1830.11 1417.19C1835.71 1424.27 1838.59 1433.58 1838.59 1445.27H1842.25C1842.25 1432.97 1839.21 1422.8 1832.97 1414.92L1830.11 1417.19ZM1838.59 1445.27C1838.59 1454.64 1836.41 1462.7 1832.1 1469.54L1835.19 1471.49C1839.91 1463.99 1842.25 1455.23 1842.25 1445.27H1838.59ZM1832.11 1469.53C1827.74 1476.3 1822.18 1481.63 1815.43 1485.53L1817.26 1488.69C1824.53 1484.49 1830.5 1478.75 1835.18 1471.5L1832.11 1469.53ZM1814.76 1488.01L1851.68 1553.45L1854.86 1551.66L1817.94 1486.21L1814.76 1488.01ZM1853.27 1550.73H1812.14V1554.38H1853.27V1550.73ZM1813.75 1551.69L1784.3 1496.53L1781.08 1498.25L1810.53 1553.41L1813.75 1551.69ZM1782.57 1495.57C1780.12 1495.72 1777.74 1495.8 1775.44 1495.8V1499.45C1777.82 1499.45 1780.27 1499.37 1782.8 1499.22L1782.57 1495.57ZM1775.56 1495.8C1773.19 1495.65 1770.81 1495.57 1768.43 1495.57V1499.22C1770.73 1499.22 1773.02 1499.3 1775.32 1499.45L1775.56 1495.8ZM1768.43 1495.57H1754.17V1499.22H1768.43V1495.57ZM1752.35 1497.39V1552.55H1756V1497.39H1752.35ZM1754.17 1550.73H1717.71V1554.38H1754.17V1550.73ZM1719.54 1552.55V1393.62H1715.89V1552.55H1719.54ZM1992.55 1393.62L1994.35 1393.34L1994.11 1391.79H1992.55V1393.62ZM1996.99 1422.37V1424.19H1999.12L1998.79 1422.09L1996.99 1422.37ZM1944.4 1422.37V1420.54H1942.57V1422.37H1944.4ZM1944.4 1552.55V1554.38H1946.22V1552.55H1944.4ZM1907.94 1552.55H1906.11V1554.38H1907.94V1552.55ZM1907.94 1422.37H1909.76V1420.54H1907.94V1422.37ZM1860.26 1422.37H1858.43V1424.19H1860.26V1422.37ZM1860.26 1393.62V1391.79H1858.43V1393.62H1860.26ZM1990.74 1393.9L1995.18 1422.65L1998.79 1422.09L1994.35 1393.34L1990.74 1393.9ZM1996.99 1420.54H1944.4V1424.19H1996.99V1420.54ZM1942.57 1422.37V1552.55H1946.22V1422.37H1942.57ZM1944.4 1550.73H1907.94V1554.38H1944.4V1550.73ZM1909.76 1552.55V1422.37H1906.11V1552.55H1909.76ZM1907.94 1420.54H1860.26V1424.19H1907.94V1420.54ZM1862.08 1422.37V1393.62H1858.43V1422.37H1862.08ZM1860.26 1395.44H1992.55V1391.79H1860.26V1395.44Z" fill="white"/>
<defs>
<linearGradient id="paint0_linear_87_182" x1="974.706" y1="340.559" x2="2000" y2="404.469" gradientUnits="userSpaceOnUse">
<stop stop-color="white"/>
<stop offset="1" stop-color="#292929"/>
</linearGradient>
</defs>
</svg>
