<svg width="30" height="30" viewBox="0 0 30 30" fill="none" xmlns="http://www.w3.org/2000/svg">
<circle cx="15" cy="15" r="15" fill="#FF2E63"/>
<path fill-rule="evenodd" clip-rule="evenodd" d="M16 22.0001C19.1157 21.9994 21.8559 19.9396 22.7224 16.9468C23.5889 13.954 22.373 10.7487 19.7396 9.0836C17.1062 7.41845 13.6892 7.69428 11.357 9.76026C9.02471 11.8262 8.3387 15.185 9.674 18.0001L8 22.0001L12.392 21.0001C13.4809 21.6564 14.7286 22.0022 16 22.0001Z" stroke="white" stroke-width="1.5" stroke-linecap="round" stroke-linejoin="round"/>
<path fill-rule="evenodd" clip-rule="evenodd" d="M14.0411 14.0661C13.4718 14.0611 13.0138 13.5965 13.0171 13.0271C13.0204 12.4578 13.4837 11.9985 14.0531 12.0001C14.6224 12.0018 15.0831 12.4637 15.0831 13.0331C15.0803 13.606 14.614 14.0683 14.0411 14.0661V14.0661Z" stroke="white" stroke-width="1.5" stroke-linecap="round" stroke-linejoin="round"/>
<path fill-rule="evenodd" clip-rule="evenodd" d="M16.917 16.9181C16.9138 17.3397 17.1652 17.7217 17.5538 17.8854C17.9424 18.0491 18.3914 17.9622 18.6909 17.6654C18.9904 17.3685 19.0811 16.9203 18.9208 16.5303C18.7605 16.1403 18.3807 15.8855 17.959 15.8851C17.3861 15.8829 16.9198 16.3452 16.917 16.9181V16.9181Z" stroke="white" stroke-width="1.5" stroke-linecap="round" stroke-linejoin="round"/>
<path d="M13 13.0331C12.986 16.5001 16.3 18.3301 17.959 17.9511" stroke="white" stroke-width="1.5" stroke-linecap="round"/>
</svg>
