<svg width="64" height="64" viewBox="0 0 64 64" fill="none" xmlns="http://www.w3.org/2000/svg">
<g clip-path="url(#clip0_0_199)">
<path d="M16.4023 27.1045C16.7314 27.1045 17.0537 26.9707 17.2861 26.7383C17.5185 26.5054 17.6523 26.1831 17.6523 25.8545C17.6523 25.5254 17.5185 25.2031 17.2861 24.9707C17.0537 24.7383 16.7314 24.6045 16.4023 24.6045C16.0723 24.6045 15.7515 24.7383 15.5186 24.9707C15.2861 25.2031 15.1523 25.5254 15.1523 25.8545C15.1523 26.1831 15.2861 26.5054 15.5186 26.7383C15.7515 26.9707 16.0737 27.1045 16.4023 27.1045Z" fill="#FBDC6A"/>
<path d="M34.3086 25.4492C34.0752 25.2168 33.7539 25.083 33.4238 25.083C33.0952 25.083 32.7725 25.2168 32.54 25.4492C32.3076 25.6816 32.1738 26.0044 32.1738 26.333C32.1738 26.6616 32.3076 26.9844 32.54 27.2168C32.7725 27.4492 33.0952 27.583 33.4238 27.583C33.7539 27.583 34.0752 27.4492 34.3086 27.2168C34.541 26.9844 34.6738 26.6631 34.6738 26.333C34.6738 26.0044 34.541 25.6816 34.3086 25.4492Z" fill="#FBDC6A"/>
<path d="M37.7998 23.208C38.1289 23.208 38.4512 23.0742 38.6836 22.8418C38.916 22.6094 39.0488 22.2866 39.0488 21.958C39.0488 21.6294 38.916 21.3066 38.6836 21.0742C38.4512 20.8418 38.1289 20.708 37.7998 20.708C37.4702 20.708 37.1475 20.8418 36.915 21.0742C36.6826 21.3066 36.5488 21.6294 36.5488 21.958C36.5488 22.2866 36.6826 22.6094 36.915 22.8418C37.1475 23.0742 37.4702 23.208 37.7998 23.208Z" fill="#FBDC6A"/>
<path d="M60.2499 30.7495H56.7621L62.9017 24.6098C63.6097 23.9013 63.9999 22.9594 63.9999 21.958C63.9999 20.9565 63.6097 20.0146 62.9017 19.3066L57.3329 13.7378C56.8451 13.25 56.0536 13.25 55.5653 13.7378C54.8573 14.4463 53.9154 14.8364 52.914 14.8364C51.912 14.8364 50.9706 14.4463 50.2621 13.7378C49.5536 13.0298 49.164 12.0879 49.164 11.0864C49.164 10.0845 49.5541 9.14305 50.2621 8.43455C50.4965 8.20018 50.6283 7.88231 50.6283 7.55077C50.6283 7.21922 50.4965 6.90135 50.2621 6.66698L44.6938 1.09863C43.9853 0.390136 43.0439 0 42.0419 0C41.0405 0 40.0986 0.390136 39.3905 1.09863L18.7451 21.7436C18.2568 22.2314 18.2568 23.0229 18.7451 23.5112C19.2334 23.9995 20.0249 23.9995 20.5131 23.5112L41.1581 2.86621C41.3945 2.62988 41.7079 2.5 42.0419 2.5C42.3759 2.5 42.6899 2.62988 42.9257 2.86621L47.6986 7.63866C47.0253 8.65233 46.664 9.84178 46.664 11.0864C46.664 12.7558 47.3139 14.3252 48.4945 15.5058C49.6752 16.686 51.2445 17.3364 52.914 17.3364C54.1586 17.3364 55.3475 16.9751 56.3617 16.3017L61.1342 21.0742C61.6215 21.5615 61.6215 22.3545 61.1342 22.8418L53.2265 30.7495H47.7465L51.8534 26.6425C52.3412 26.1542 52.3412 25.3627 51.8534 24.875L39.1254 12.1469C38.6371 11.6587 37.8456 11.6587 37.3573 12.1469L18.7548 30.7495H3.74999C1.68213 30.7495 0 32.4316 0 34.4994V42.3744C0 43.0644 0.559569 43.6244 1.25 43.6244C3.31786 43.6244 4.99999 45.3066 4.99999 47.3744C4.99999 49.4418 3.31786 51.1244 1.25 51.1244C0.559569 51.1244 0 51.684 0 52.3744V60.2494C0 62.3168 1.68213 63.9994 3.74999 63.9994H60.2499C62.3178 63.9994 63.9999 62.3168 63.9999 60.2494V52.3744C63.9999 51.684 63.4403 51.1244 62.7499 51.1244C60.682 51.1244 58.9999 49.4418 58.9999 47.3744C58.9999 45.3066 60.682 43.6244 62.7499 43.6244C63.4403 43.6244 63.9999 43.0644 63.9999 42.3744V34.4994C63.9999 32.4316 62.3178 30.7495 60.2499 30.7495ZM38.2411 14.7983L49.2016 25.7587L44.2109 30.7495H39.2612L42.9257 27.0844C43.414 26.5966 43.414 25.8051 42.9257 25.3168C42.4379 24.8286 41.6464 24.8286 41.1581 25.3168L35.7255 30.749H22.2905L38.2411 14.7983ZM61.4999 41.2499C58.6508 41.8305 56.4999 44.3559 56.4999 47.3744C56.4999 50.3925 58.6508 52.9179 61.4999 53.4989V60.2494C61.4999 60.9384 60.9393 61.4994 60.2499 61.4994H3.74999C3.06054 61.4994 2.5 60.9384 2.5 60.2494V53.4989C5.34911 52.9179 7.49999 50.3925 7.49999 47.3744C7.49999 44.3559 5.34911 41.831 2.5 41.2499V34.4994C2.5 33.81 3.06054 33.2494 3.74999 33.2494H60.2499C60.9393 33.2494 61.4999 33.81 61.4999 34.4994V41.2499Z" fill="#FF2E63"/>
<path d="M26.6963 45.2582C26.9287 45.0253 27.0625 44.703 27.0625 44.3744C27.0625 44.0453 26.9287 43.723 26.6963 43.4906C26.4639 43.2582 26.1411 43.1244 25.8125 43.1244C25.4839 43.1244 25.1611 43.2582 24.9287 43.4906C24.6963 43.723 24.5625 44.0453 24.5625 44.3744C24.5625 44.703 24.6963 45.0253 24.9287 45.2582C25.1611 45.4906 25.4839 45.6244 25.8125 45.6244C26.1411 45.6244 26.4639 45.4906 26.6963 45.2582Z" fill="#FBDC6A"/>
<path d="M39.0713 45.2582C39.3037 45.0253 39.4375 44.703 39.4375 44.3744C39.4375 44.0453 39.3037 43.723 39.0713 43.4906C38.8389 43.2582 38.5161 43.1244 38.1875 43.1244C37.8589 43.1244 37.5361 43.2582 37.3037 43.4906C37.0713 43.723 36.9375 44.0453 36.9375 44.3744C36.9375 44.703 37.0713 45.0253 37.3037 45.2582C37.5361 45.4906 37.8589 45.6244 38.1875 45.6244C38.5161 45.6244 38.8389 45.4906 39.0713 45.2582Z" fill="#FBDC6A"/>
<path d="M32.8838 45.2582C33.1162 45.0253 33.25 44.703 33.25 44.3744C33.25 44.0453 33.1162 43.723 32.8838 43.4906C32.6514 43.2582 32.3286 43.1244 32 43.1244C31.6714 43.1244 31.3486 43.2582 31.1162 43.4906C30.8838 43.723 30.75 44.0453 30.75 44.3744C30.75 44.703 30.8838 45.0253 31.1162 45.2582C31.3486 45.4906 31.6714 45.6244 32 45.6244C32.3286 45.6244 32.6514 45.4906 32.8838 45.2582Z" fill="#FBDC6A"/>
<path d="M19.625 45.6244C19.9536 45.6244 20.2764 45.4906 20.5088 45.2582C20.7412 45.0253 20.875 44.703 20.875 44.3744C20.875 44.0453 20.7412 43.723 20.5088 43.4906C20.2764 43.2582 19.9536 43.1244 19.625 43.1244C19.2964 43.1244 18.9736 43.2582 18.7412 43.4906C18.5088 43.723 18.375 44.0453 18.375 44.3744C18.375 44.703 18.5088 45.0253 18.7412 45.2582C18.9736 45.4906 19.2964 45.6244 19.625 45.6244Z" fill="#FBDC6A"/>
<path d="M45.2588 45.2582C45.4912 45.0253 45.625 44.703 45.625 44.3744C45.625 44.0453 45.4912 43.723 45.2588 43.4906C45.0264 43.2582 44.7036 43.1244 44.375 43.1244C44.0464 43.1244 43.7236 43.2582 43.4912 43.4906C43.2588 43.723 43.125 44.0453 43.125 44.3744C43.125 44.703 43.2588 45.0253 43.4912 45.2582C43.7236 45.4906 44.0464 45.6244 44.375 45.6244C44.7036 45.6244 45.0264 45.4906 45.2588 45.2582Z" fill="#FBDC6A"/>
<path d="M19.625 51.6244H44.3749C45.0654 51.6244 45.6249 51.0643 45.6249 50.3744C45.6249 49.684 45.0654 49.1244 44.3749 49.1244H19.625C18.9346 49.1244 18.375 49.684 18.375 50.3744C18.375 51.0643 18.9346 51.6244 19.625 51.6244Z" fill="#FF2E63"/>
<path d="M24.165 55.1244C23.8364 55.1244 23.5137 55.2582 23.2812 55.4906C23.0488 55.723 22.915 56.0453 22.915 56.3744C22.915 56.703 23.0488 57.0253 23.2812 57.2582C23.5137 57.4906 23.8364 57.6244 24.165 57.6244C24.4951 57.6244 24.8164 57.4906 25.0488 57.2582C25.2827 57.0253 25.415 56.703 25.415 56.3744C25.415 56.0453 25.2827 55.723 25.0488 55.4906C24.8164 55.2582 24.4951 55.1244 24.165 55.1244Z" fill="#FBDC6A"/>
<path d="M50.9999 37.1244H13C12.3096 37.1244 11.75 37.684 11.75 38.3744V56.3744C11.75 57.0643 12.3096 57.6244 13 57.6244H18.207C18.8974 57.6244 19.457 57.0643 19.457 56.3744C19.457 55.6839 18.8974 55.1244 18.207 55.1244H14.25V39.6244H49.7499V55.1244H29.457C28.7666 55.1244 28.207 55.6839 28.207 56.3744C28.207 57.0643 28.7666 57.6244 29.457 57.6244H50.9999C51.6904 57.6244 52.2499 57.0643 52.2499 56.3744V38.3744C52.2499 37.684 51.6904 37.1244 50.9999 37.1244Z" fill="#FF2E63"/>
</g>
<defs>
<clipPath id="clip0_0_199">
<rect width="64" height="63.9999" fill="white"/>
</clipPath>
</defs>
</svg>
