<svg width="64" height="64" viewBox="0 0 64 64" fill="none" xmlns="http://www.w3.org/2000/svg">
<g clip-path="url(#clip0_0_172)">
<path d="M20.0001 45.3333C19.2641 45.3333 18.6667 44.736 18.6667 44V13.3333C18.6667 10.392 21.0587 8 24.0001 8C26.9414 8 29.3334 10.392 29.3334 13.3333V41.3333C29.3334 42.0693 28.7361 42.6667 28.0001 42.6667C27.2641 42.6667 26.6667 42.0693 26.6667 41.3333V13.3333C26.6667 11.8613 25.4721 10.6667 24.0001 10.6667C22.5281 10.6667 21.3334 11.8613 21.3334 13.3333V44C21.3334 44.736 20.7361 45.3333 20.0001 45.3333Z" fill="#FF2E63"/>
<path d="M36.0001 42.6667C35.2641 42.6667 34.6667 42.0693 34.6667 41.3333V29.3333C34.6667 27.8613 33.4721 26.6667 32.0001 26.6667C30.5281 26.6667 29.3334 27.8613 29.3334 29.3333C29.3334 30.0693 28.7361 30.6667 28.0001 30.6667C27.2641 30.6667 26.6667 30.0693 26.6667 29.3333C26.6667 26.392 29.0587 24 32.0001 24C34.9414 24 37.3334 26.392 37.3334 29.3333V41.3333C37.3334 42.0693 36.7361 42.6667 36.0001 42.6667Z" fill="#FF2E63"/>
<path d="M44.0001 42.6666C43.2641 42.6666 42.6667 42.0693 42.6667 41.3333V32C42.6667 30.528 41.4721 29.3333 40.0001 29.3333C38.5281 29.3333 37.3334 30.528 37.3334 32C37.3334 32.736 36.7361 33.3333 36.0001 33.3333C35.2641 33.3333 34.6667 32.736 34.6667 32C34.6667 29.0586 37.0587 26.6666 40.0001 26.6666C42.9414 26.6666 45.3334 29.0586 45.3334 32V41.3333C45.3334 42.0693 44.7361 42.6666 44.0001 42.6666Z" fill="#FF2E63"/>
<path d="M41.3334 64H25.9014C21.4134 64 16.784 62.0454 13.512 58.7707C9.90138 55.1574 7.99471 50.0027 8.00271 43.8694C8.00538 38.7974 12.248 34.6667 17.456 34.6667H20C20.736 34.6667 21.3334 35.264 21.3334 36C21.3334 36.736 20.736 37.3334 20 37.3334H17.456C13.7174 37.3334 10.672 40.2694 10.6694 43.872C10.664 49.36 12.256 53.736 15.3974 56.8854C18.6747 60.1654 22.9707 61.3334 25.9014 61.3334H41.3334C46.48 61.3334 50.6667 57.1467 50.6667 52V34.6667C50.6667 33.1947 49.472 32 48 32C46.528 32 45.3334 33.1947 45.3334 34.6667C45.3334 35.4027 44.736 36 44 36C43.264 36 42.6667 35.4027 42.6667 34.6667C42.6667 31.7254 45.0587 29.3334 48 29.3334C50.9414 29.3334 53.3334 31.7254 53.3334 34.6667V52C53.3334 58.616 47.9494 64 41.3334 64Z" fill="#FF2E63"/>
<path d="M33.3334 22.1867C33.0374 22.1867 32.7361 22.088 32.4907 21.8853C31.9201 21.4187 31.8374 20.5813 32.3041 20.0107C33.8481 18.1173 34.6667 15.808 34.6667 13.3333C34.6667 7.45067 29.8827 2.66667 24.0001 2.66667C18.1174 2.66667 13.3334 7.45067 13.3334 13.3333C13.3334 15.808 14.1521 18.1173 15.6987 20.0107C16.1654 20.5813 16.0827 21.4187 15.5121 21.8853C14.9441 22.3547 14.1041 22.2693 13.6374 21.6987C11.6934 19.3227 10.6667 16.4293 10.6667 13.3333C10.6667 5.98133 16.6481 0 24.0001 0C31.3521 0 37.3334 5.98133 37.3334 13.3333C37.3334 16.4293 36.3067 19.3227 34.3654 21.6987C34.1014 22.0213 33.7201 22.1867 33.3334 22.1867Z" fill="#FBDC6A"/>
</g>
<defs>
<clipPath id="clip0_0_172">
<rect width="64" height="64" fill="white"/>
</clipPath>
</defs>
</svg>
